/* XPM */
static char *_ea56fd0b2db4895cc8afdf7aab9f0f0[] = {
/* columns rows colors chars-per-pixel */
"26 32 74 1 ",
"  c #7A7A7C",
". c #7A7B7D",
"X c #7B7C7E",
"o c #7C7C7E",
"O c #7C7C7F",
"+ c #7C7D7F",
"@ c #7D7D80",
"# c #7D7E80",
"$ c #7E7F81",
"% c #7E7F82",
"& c #7F8083",
"* c #808184",
"= c #818285",
"- c #828386",
"; c #838587",
": c #848587",
"> c #848688",
", c #858789",
"< c #86888A",
"1 c #87888B",
"2 c #88898B",
"3 c #898A8C",
"4 c #888A8D",
"5 c #8A8B8D",
"6 c #8B8C8F",
"7 c #8F9093",
"8 c #8F9193",
"9 c #8F9194",
"0 c #929496",
"q c #949598",
"w c #949699",
"e c #959799",
"r c #96989A",
"t c #96989B",
"y c #97999B",
"u c #9D9FA2",
"i c #A1A2A4",
"p c #A5A7AA",
"a c #A8AAAD",
"s c #ACAEB1",
"d c #B1B2B3",
"f c #B4B4B5",
"g c #B5B5B7",
"h c #B6B6B7",
"j c #B4B6B8",
"k c #B6B7B8",
"l c #B7B8BA",
"z c #B8B8B9",
"x c #B9B9BA",
"c c #BCBDBE",
"v c #BCBDBF",
"b c #BEBFC1",
"n c #C0C0C2",
"m c #C0C1C2",
"M c #C3C3C4",
"N c #C3C4C4",
"B c #C3C4C7",
"V c #CBCCCE",
"C c #CCCDCF",
"Z c #CDCECF",
"A c #CECECF",
"S c #D0D0D1",
"D c #D0D1D1",
"F c #D3D4D5",
"G c #D4D5D6",
"H c #D6D7D7",
"J c gray85",
"K c #DADBDC",
"L c #DBDCDD",
"P c #E2E3E4",
"I c #EAEBEC",
"U c #EBEBEC",
"Y c #F4F4F4",
"T c None",
/* pixels */
"TTTTTTTTTTTT85TTTTTTTTTTTT",
"TTTTTTTTTTT9uqTTTTTTTTTTTT",
"TTTTTTTTTTTquy;TTTTTTTTTTT",
"TTTTTTTTTTTyuy<TTTTTTTTTTT",
"TTTTTTTTTTTqut,TTTTTTTTTTT",
"TTTTTTTTTTT5utTTTTTTTTTTTT",
"TTTTTgmBvjat9614---##TTTTT",
"TTTcKFVBbjsput94--&--&XTTT",
"TTAPKFVBbjsput94------- TT",
"TMIPKFVBcjsput94--&&&&-- T",
"TIIPKFVBcjsput94-&-----*#T",
"NYIPKFVBbjsput94--&--&*--T",
"HYIPKHVBcjsput94-&---*-*-+",
"JYIPJFVBcjsput94---&*-*--+",
"JYIPKFVBbjaput94---&-*-**X",
"JYIPKFVBcjsput94-&--*-*--+",
"SYIPKFVBbjsput94-&---&--- ",
"jYIPKFVBvjsput94---&-&-&-T",
"TSIPKFVBvjsput94---&--&- T",
"TzIPKFVBvjsput94-&--&---TT",
"TTLPKFVBvjsput94--&--&-+TT",
"TTzPKFVBvjsput94-&-----TTT",
"TTTGKFVBvjsput94--&&&&+TTT",
"TTTgKFVMvjsput94------TTTT",
"TTTTZFVMvjspuq94-&&--#TTTT",
"TTTTjHVBvjsput94----- TTTT",
"TTTTTCVBvjsput94---&#TTTTT",
"TTTTTdVBvjsput95---- TTTTT",
"TTTTTTmBbjsput94---#TTTTTT",
"TTTTTTTbcjspuq94-&&TTTTTTT",
"TTTTTTTTljsput94-&TTTTTTTT",
"TTTTTTTTTia02,;4#TTTTTTTTT"
};
