/* XPM */
static char *_dc72790015f435a910d01fb779d6564[] = {
/* columns rows colors chars-per-pixel */
"128 128 49 1 ",
"  c #77787C",
". c #797B7E",
"X c #7D7E81",
"o c #7F8083",
"O c #818285",
"+ c #848689",
"@ c #87888B",
"# c #898B8E",
"$ c #8C8E91",
"% c #8F9194",
"& c #929497",
"* c #939598",
"= c #96989B",
"- c #999B9E",
"; c #9C9EA1",
": c #9EA0A3",
"> c #A1A3A6",
", c #A4A6A9",
"< c #A9ABAE",
"1 c #ACAEB1",
"2 c #AEB0B2",
"3 c #B1B3B5",
"4 c #B4B6B9",
"5 c #B7B8BB",
"6 c #BBBCBD",
"7 c #BDBFC1",
"8 c #BFC0C3",
"9 c #C4C5C6",
"0 c #C6C7C9",
"q c #C7C8C9",
"w c #CBCCCE",
"e c #CECFD1",
"r c #CFD0D3",
"t c #D3D4D5",
"y c #D6D7D9",
"u c #D7D8D9",
"i c #DBDCDD",
"p c #DEDFE0",
"a c #DFE0E1",
"s c #E3E4E5",
"d c #E7E7E8",
"f c #E7E8E9",
"g c #EBECEC",
"h c #EFEFF0",
"j c #EFF0F0",
"k c #F3F3F3",
"l c #F7F7F8",
"z c #F7F8F8",
"x c #FFFFFF",
/* pixels */
"-766666666666666666666666666666666666666666666666666666666666666666666666666666666666666666666666666666666666666666666666666667;",
"9xxxxxxxxxxxxxxxxxxxxxxxxxxxxxxxxxxxxxxxxxxxxxxxxxxxxxxxxxxxxxxxxxxxxxxxxxxxxxxxxxxxxxxxxxxxxxxxxxxxxxxxxxxxxxxxxxxxxxxxxxxxxxxw",
"6xxxxxxxxxxxxxxxxxxxxxxxxxxxxxxxxxxxxxxxxxxxxxxxxxxxxxxxxxxxxxxxxxxxxxxxxxxxxxxxxxxxxxxxxxxxxxxxxxxxxxxxxxxxxxxxxxxxxxxxxxxxxxx9",
"6xxxxxxxxxxxxxxxxxxxxxxxxxxxxxxxxxxxxxxxxxxxxxxxxxxxxxxxxxxxxxxxxxxxxxxxxxxxxxxxxxxxxxxxxxxxxxxxxxxxxxxxxxxxxxxxxxxxxxxxxxxxxxx9",
"6xxxxxxxxxxxxxxxxxxxxxxxxxxxxxxxxxxxxxxxxxxxxxxxxxxxxxxxxxxxxxxxxxxxxxxxxxxxxxxxxxxxxxxxxxxxxxxxxxxxxxxxxxxxxxxxxxxxxxxxxxxxxxx9",
"6xxxxxxxxxxxxxxxxxxxxxxxxxxxxxxxxxxxxxxxxxxxxxxxxxxxxxxxxxxxxxftxxxxxxxxxxxxxxxxxxxxxxxxxxxxxxxxxxxxxxxxxxxxxxxxxxxxxxxxxxxxxxx9",
"6xxxxxxxxxxxxxxxxxxxxxxxxxxxxxxxxxxxxxxxxxxxxxxxxxxxxxxxxxxxxs:&4lxxxxxxxxxxxxxxxxxxxxxxxxxxxxxxxxxxxxxxxxxxxxxxxxxxxxxxxxxxxxx9",
"6xxxxxxxxxxxxxxxxxxxxxxxxxxxxxxxxxxxxxxxxxxxxxxxxxxxxxxxxxxxg>=;%3zxxxxxxxxxxxxxxxxxxxxxxxxxxxxxxxxxxxxxxxxxxxxxxxxxxxxxxxxxxxx9",
"6xxxxxxxxxxxxxxxxxxxxxxxxxxxxxxxxxxxxxxxxxxxxxxxxxxxxxxxxxxz1-;--$4xxxxxxxxxxxxxxxxxxxxxxxxxxxxxxxxxxxxxxxxxxxxxxxxxxxxxxxxxxxx9",
"6xxxxxxxxxxxxxxxxxxxxxxxxxxxxxxxxxxxxxxxxxxxxxxxxxxxxxxxxxxw-:;--=$txxxxxxxxxxxxxxxxxxxxxxxxxxxxxxxxxxxxxxxxxxxxxxxxxxxxxxxxxxx9",
"6xxxxxxxxxxxxxxxxxxxxxxxxxxxxxxxxxxxxxxxxxxxxxxxxxxxxxxxxxh>::;--=&-lxxxxxxxxxxxxxxxxxxxxxxxxxxxxxxxxxxxxxxxxxxxxxxxxxxxxxxxxxx9",
"6xxxxxxxxxxxxxxxxxxxxxxxxxxxxxxxxxxxxxxxxxxxxxxxxxxxxxxxxxw;>:;--=*#qxxxxxxxxxxxxxxxxxxxxxxxxxxxxxxxxxxxxxxxxxxxxxxxxxxxxxxxxxx9",
"6xxxxxxxxxxxxxxxxxxxxxxxxxxxxxxxxxxxxxxxxxxxxxxxxxxxxxxxxz2>>;;--=*$:zxxxxxxxxxxxxxxxxxxxxxxxxxxxxxxxxxxxxxxxxxxxxxxxxxxxxxxxxx9",
"6xxxxxxxxxxxxxxxxxxxxxxxxxxxxxxxxxxxxxxxxxxxxxxxxxxxxxxxxf>>>:;--=*&$sxxxxxxxxxxxxxxxxxxxxxxxxxxxxxxxxxxxxxxxxxxxxxxxxxxxxxxxxx9",
"6xxxxxxxxxxxxxxxxxxxxxxxxxxxxxxxxxxxxxxxxxxxxxxxxxxxxxxxxt:>>:;--=*&#qxxxxxxxxxxxxxxxxxxxxxxxxxxxxxxxxxxxxxxxxxxxxxxxxxxxxxxxxx9",
"6xxxxxxxxxxxxxxxxxxxxxxxxxxxxxxxxxxxxxxxxxxxxxxxxxxxxxxxxw:,::;-==&&#3xxxxxxxxxxxxxxxxxxxxxxxxxxxxxxxxxxxxxxxxxxxxxxxxxxxxxxxxx9",
"6xxxxxxxxxxxxxxxxxxxxxxxxxxxxxxxxxxxxxxxxxxxxxxxxxxxxxxxx8:,>::--=*&$,xxxxxxxxxxxxxxxxxxxxxxxxxxxxxxxxxxxxxxxxxxxxxxxxxxxxxxxxx9",
"6xxxxxxxxxxxxxxxxxxxxxxxxxxxxxxxxxxxxxxxxxxxxxxxxxxxxxxxx8:>:::--=*&$;xxxxxxxxxxxxxxxxxxxxxxxxxxxxxxxxxxxxxxxxxxxxxxxxxxxxxxxxx9",
"6xxxxxxxxxxxxxxxxxxxxxxxxxxxxxxxxxxxxxxxxxxxxxxxxxxxxxxxx8:,>:---=*&$;zxxxxxxxxxxxxxxxxxxxxxxxxxxxxxxxxxxxxxxxxxxxxxxxxxxxxxxxx9",
"6xxxxxxxxxxxxxxxxxxxxxxxxxxxxxxxxxxxxxxxxxxxxxxxxxxxxxxxxw:>>::-==**$>xxxxxxxxxxxxxxxxxxxxxxxxxxxxxxxxxxxxxxxxxxxxxxxxxxxxxxxxx9",
"6xxxxxxxxxxxxxxxxxxxxxxxxxxxxxxxxxxxxxxxxxxxxxxxxxxxxxxxxy::>:;-==*&#1xxxxxxxxxxxxxxxxxxxxxxxxxxxxxxxxxxxxxxxxxxxxxxxxxxxxxxxxx9",
"6xxxxxxxxxxxxxxxxxxxxxxxxxxxxxxxxxxxxxxxxxxxxxxxxxxxxxxxxf:,::;--=*&#9xxxxxxxxxxxxxxxxxxxxxxxxxxxxxxxxxxxxxxxxxxxxxxxxxxxxxxxxx9",
"6xxxxxxxxxxxxxxxxxxxxxxxxxxxxxxxxxxxxxxxxxxxxxxxxxxxxxxxxz2:>:--==*&#ixxxxxxxxxxxxxxxxxxxxxxxxxxxxxxxxxxxxxxxxxxxxxxxxxxxxxxxxx9",
"6xxxxxxxxxxxxxxxxxxxxxxxxxxxxxxxxxxxxxxxxxxxxxxxxxxxxxxxxxw:>::--==%-lxxxxxxxxxxxxxxxxxxxxxxxxxxxxxxxxxxxxxxxxxxxxxxxxxxxxxxxxx9",
"6xxxxxxxxxxxxxxxxxxxxxxxxxxxxxxxxxxxxxxxxxxxxxxxxxxxxxxxxxg,:::--=*#6xxxxxxxxxxxxxxxxxxxxxxxxxxxxxxxxxxxxxxxxxxxxxxxxxxxxxxxxxx9",
"6xxxxxxxxxxxxxxxxxxxxxxxxxxxxxxxxxxxxxxxxxxxxzxxzxxxxxxxxxx8-::--=&*hxxxxxxxxzzzzxxxxxxxxxxxxxxxxxxxxxxxxxxxxxxxxxxxxxxxxxxxxxx9",
"6xxxxxxxxxxxxxxxxxxxxxxxxxxxxxxxxxxxxxxxlgaywq887689wtskzxzz1-:--=$0xxxliw3,-*%%%->19uhxxxxxxxxxxxxxxxxxxxxxxxxxxxxxxxxxxxxxxxx9",
"6xxxxxxxxxxxxxxxxxxxxxxxxxxxxxxxxxxxxkstw988887664321<<17rgzg:---%1xhw<*@oXX.XX.......@-6sxxxxxxxxxxxxxxxxxxxxxxxxxxxxxxxxxxxxx9",
"6xxxxxxxxxxxxxxxxxxxxxxxxxxxxxxxxxxgiewwwq0998866544221<,>>4aa>-=,t4&@@@@@++OOOO+OOOOOO. O-ezxxxxxxxxxxxxxxxxxxxxxxxxxxxxxxxxxx9",
"6xxxxxxxxxxxxxxxxxxxxxxxxxxxxxxxxgyrrreww009888655432211<,>;-37>=>*$%$$##@++OOOOOOOOOOOOOO. %qzxxxxxxxxxxxxxxxxxxxxxxxxxxxxxxxx9",
"6xxxxxxxxxxxxxxxxxxxxxxxxxxxxxxkpttytrewww0998776543321<<,,>>;;>=***%%$##@++OOOOOOOOOOOOOOOO..*uxxxxxxxxxxxxxxxxxxxxxxxxxxxxxxx9",
"6xxxxxxxxxxxxxxxxxxxxxxxxxxxxzfiiiyyttewwq09887755442111<,,>>:;--=*&&$$$#@++OOOOOOOOOOOOOOOO+O.X2kxxxxxxxxxxxxxxxxxxxxxxxxxxxxx9",
"6xxxxxxxxxxxxxxxxxxxxxxxxxxxzsipiiytteewwq08088854442211<,,>>;;-==*&%%$$@@@OOOOOOOOOOOOOOOOOOOOO &sxxxxxxxxxxxxxxxxxxxxxxxxxxxx9",
"6xxxxxxxxxxxxxxxxxxxxxxxxxxlsappiuyytteewq0988867544321<<,,>>;;--=*&%%$##@++OOOOOOOOOOOOOOOOOOOOO.Otxxxxxxxxxxxxxxxxxxxxxxxxxxx9",
"6xxxxxxxxxxxxxxxxxxxxxxxxxkssaaiiuyytrewwqq988864544221<<,,>>;;--=*&%%$#@@++OOOOOOOOOOOOOOOOOOOOOOX.9xxxxxxxxxxxxxxxxxxxxxxxxxx9",
"6xxxxxxxxxxxxxxxxxxxxxxxxkssssapiiyttteewqq9888674433211<,,>>>;--=*&%%%##@++OOOOOOOOOOOOOOOOOOOOOOOO.9xxxxxxxxxxxxxxxxxxxxxxxxx9",
"6xxxxxxxxxxxxxxxxxxxxxxxlsfdssppiiyyttewwqqq88885444321<<,,>>:;-==**%%$##@@+OOOOOOOOOOOOOOOOOOOOOOOOo.wxxxxxxxxxxxxxxxxxxxxxxxx9",
"6xxxxxxxxxxxxxxxxxxxxxxlggfsssppiiytteewwwq888777544221<<,,>>:;--=*&%%$#@@++OOOOOOOOOOOOOOOOOOOOOOOOOXOixxxxxxxxxxxxxxxxxxxxxxx9",
"6xxxxxxxxxxxxxxxxxxxxxxghgffssppiiyytrewqqw8888644443211<,,>>:;-==*&%%$#@@++OOOOOOOOOOOOOOOOOOOOOOOOOOX$jxxxxxxxxxxxxxxxxxxxxxx9",
"6xxxxxxxxxxxxxxxxxxxxxjhhfffsspiiuyttteewww888867444221<<,>,::;--=*&%%$##@++OOOOOOOOOOOOOOOOOOOOOOOOOOO ,xxxxxxxxxxxxxxxxxxxxxx9",
"6xxxxxxxxxxxxxxxxxxxxlhjjggsfaaiiuyttreeqqq888884443311<<,,>>;;--=*&%%$##@@+OOOOOOOOOOOOOOOOOOOOOOOOOOOO.wxxxxxxxxxxxxxxxxxxxxx9",
"6xxxxxxxxxxxxxxxxxxxxjkjggffsaapiuyytteqwqqqq88874443211<,,,>>;--=*&%%$$@@++OOOOOOOOOOOOOOOOOOOOOOOOOOOO.$kxxxxxxxxxxxxxxxxxxxx9",
"6xxxxxxxxxxxxxxxxxxxjkkjjggssappiiyytteewqq888767443321<<,>>>;;--=**%%$##@@OOOOOOOOOOOOOOOOOOOOOOOOOOOOOO 6xxxxxxxxxxxxxxxxxxxx9",
"6xxxxxxxxxxxxxxxxxxzjlkjjgffssppiuyytreewq8q887647432211<,,,>;;-==**%%$#@@++OOOOOOOOOOOOOOOOOOOOOOOOOOOOO.@hxxxxxxxxxxxxxxxxxxx9",
"6xxxxxxxxxxxxxxxxxxzkkkjggfsssapiuuytteeeq00888774443211<,>>>;;--=*&%%$$@@@+OOOOOOOOOOOOOOOOOOOOOOOOOOOOOO.6xxxxxxxxxxxxxxxxxxx9",
"6xxxxxxxxxxxxxxxxxzkzkkjjgffsaapiiyytreqqq0808764743311<<,,,>:;-==*&%%$##@++OOOOOOOOOOOOOOOOOOOOOOOOOOOOOOX%lxxxxxxxxxxxxxxxxxx9",
"6xxxxxxxxxxxxxxxxxzzzzkjjgffssapiuyyttrweq0088774444221<<,>>>;;--=*&%%$##@@+OOOOOOOOOOOOOOOOOOOOOOOOOOOOOOO.txxxxxxxxxxxxxxxxxx9",
"6xxxxxxxxxxxxxxxxzzzzzkjggfdsaaiiuyytreewq0088767443321<<,,,>>;--=**%$$$@@++OOOOOOOOOOOOOOOOOOOOOOOOOOOOOOO.<xxxxxxxxxxxxxxxxxx9",
"6xxxxxxxxxxxxxxxxxlzzkkjgggdsaapiuyyrteww000777744441111<,,>>:;--=**%$$##@+@o@ooOOOOOOOOOOOOOOOOOOOOOOOOOOOX#lxxxxxxxxxxxxxxxxx9",
"6xxxxxxxxxxxxxxxxzzzzlkkjgfdssppiiyytreew000087774443111<,,>>:;-==**&$$##@+ooo@oOOOOOOOOOOOOOOOOOOOOOOOOOOOO.ixxxxxxxxxxxxxxxxx9",
"6xxxxxxxxxxxxxxxxlzxllkhggddsaapiiuytreww000077774443111<,,,>;;-==*&%%$##@+@ooooOOOOOOOOOOOOOOOOOOOOOOOOOOOO.9xxxxxxxxxxxxxxxxx9",
"6xxxxxxxxxxxxxxxxlzzlkkhjgfdssapiuyytreew00877774444311<<,>>>;;--=*&&%$##@@o@o@oOOOOOOOOOOOOOOOOOOOOOOOOOOOO.,xxxxxxxxxxxxxxxxx9",
"6xxxxxxxxxxxxxxxxlxzlkkjggfdssaiiiuttrrww00098777443331<<,,>>::--=*&%%$##@+oo@ooOOOOOOOOOOOOOOOOOOOOOOOOOOOOX=zxxxxxxxxxxxxxxxx9",
"6xxxxxxxxxxxxxxxxzzzlkkkjgfdsaapiiuuttrwe000877447431111<,,>>:;--=*&%%$$##+@oo@oOOOOOOOOOOOOOOOOOOOOOOOOOOOOo#lxxxxxxxxxxxxxxxx9",
"6xxxxxxxxxxxxxxxzzxlllkhjgdddaapiuuttrrww00098777444321<<,,>>;;-==*&%%$##@+@ooooOOOOOOOOOOOOOOOOOOOOOOOOOOOOo+hxxxxxxxxxxxxxxxx9",
"6xxxxxxxxxxxxxxxzzxzzkkhggfdssaiiiutttrww00088777443311<<,>>>:;--=**%%$##@+o@o@oOOOOOOOOOOOOOOOOOOOOOOOOOOOOoosxxxxxxxxxxxxxxxx9",
"6xxxxxxxxxxxxxxxxzxzzljjhgdddaapiittteewwwq888774443311<<,,>::;-==&&%%$$#@o+ooooOOOOOOOOOOOOOOOOOOOOOOOOOOOOOOaxxxxxxxxxxxxxxxx9",
"6xxxxxxxxxxxxxxxzzxzzjkjhgdddaapiuuuttewwqq9987774433211<,,>>:;--==&%$$$@@@@o@o@OOOOOOOOOOOOOOOOOOOOOOOOOOOOOOsxxxxxxxxxxxxxxxx9",
"6xxxxxxxxxxxxxxxzzxzllkjjgddsappiuutttewwqq988774744311<<,,>>;;--=&&%%$@#@o+o@ooOOOOOOOOOOOOOOOOOOOOOOOOOOOOoOsxxxxxxxxxxxxxxxx9",
"6xxxxxxxxxxxxxxxxlxzllkjhgdddappiiuytteewq0997747443321<<,,>>>;--=&&%%$$#@@oooo@OOOOOOOOOOOOOOOOOOOOOOOOOOOOoOgxxxxxxxxxxxxxxxx9",
"6xxxxxxxxxxxxxxxzzxzzkkjgggdsaapiiytttewwq09977774433111<,,>>:;-==&&%%$#$@o@ooo@OOOOOOOOOOOOOOOOOOOOOOOOOOOOo@kxxxxxxxxxxxxxxxx9",
"6xxxxxxxxxxxxxxxxlxzzlkjjgdsssppiuyyttrwwq0997777444311<<,,>>:;--==&%%$$#@@o@oooOOOOOOOOOOOOOOOOOOOOOOOOOOOO.=zxxxxxxxxxxxxxxxx9",
"6xxxxxxxxxxxxxxxxlzzzljjhggdsaapiuyttrewwq0998774443311<<,,>>:;--=&&%%$$#@o@o@o@OOOOOOOOOOOOOOOOOOOOOOOOOOOO.>xxxxxxxxxxxxxxxxx9",
"6xxxxxxxxxxxxxxxxkzxzkkjggdddaapiiyyttewwq00887774433111<,,>>;;--=&&%$$$@@@@ooooOOOOOOOOOOOOOOOOOOOOOOOOOOOO.6xxxxxxxxxxxxxxxxx9",
"6xxxxxxxxxxxxxxxxzzzzlkjggfdssaiiuyytrrwww0888777443331<<,,,>:;--=&&%%###o#oo#ooOOOOOOOOOOOOOOOOOOOOOOOOOOOO.txxxxxxxxxxxxxxxxx9",
"6xxxxxxxxxxxxxxxxzzzzkkjjgffsaapiyyytrrww000977454443111<,>>>:;--=&&%%%###o#ooooOOOOOOOOOOOOOOOOOOOOOOOOOOOO@hxxxxxxxxxxxxxxxxx9",
"6xxxxxxxxxxxxxxxxxkzzkkjjgffsaapiuyytrrww00098777443111<<,,>>:;--==&&%%##@ooo##oOOOOOOOOOOOOOOOOOOOOOOOOOOO.;xxxxxxxxxxxxxxxxxx9",
"6xxxxxxxxxxxxxxxxxllzlkjggffssppiiyyyrrww00088777444311<<,,>::;--=&&%%###@#oooooOOOOOOOOOOOOOOOOOOOOOOOOOOO qxxxxxxxxxxxxxxxxxx9",
"6xxxxxxxxxxxxxxxxxzlzkjjjgfffaapiiyyttrww000887744443111<,,>>:;-==&&%%$#%oo#ooooOOOOOOOOOOOOOOOOOOOOOOOOOOO@gxxxxxxxxxxxxxxxxxx9",
"6xxxxxxxxxxxxxxxxxxkzzkjggfdsaapiuyytrrww00098777444321<<,,>::;--==&%%%####oo#@oOOOOOOOOOOOOOOOOOOOOOOOOOO 1xxxxxxxxxxxxxxxxxxx9",
"6xxxxxxxxxxxxxxxxxxzkzjjjgffssppiuyyyreee00098777443311<<,,>>:;--=&&%%$###o#ooooOOOOOOOOOOOOOOOOOOOOOOOOOO.sxxxxxxxxxxxxxxxxxxx9",
"6xxxxxxxxxxxxxxxxxxxjzkjjgfdsappiuyyrreww008877454443211<,,>>:;--=&&&%$#$o#o@o@oOOOOOOOOOOOOOOOOOOOOOOOOO <xxxxxxxxxxxxxxxxxxxx9",
"6xxxxxxxxxxxxxxxxxxxzkkhjgfsssppiuyttteww000887774433111<,>>>:;-==**%%$###oo#oo#OOOOOOOOOOOOOOOOOOOOOOOOoOdxxxxxxxxxxxxxxxxxxxx9",
"6xxxxxxxxxxxxxxxxxxxxkkhggffssppiiyytreew000987774443111<,,>>::-==*&%%$#$o#oooooOOOOOOOOOOOOOOOOOOOOOOOO 5xxxxxxxxxxxxxxxxxxxxx9",
"6xxxxxxxxxxxxxxxxxxxxzhhhgffsappiiyytreww009887755433111<,,>::;--=**&%$$$@o@ooooOOOOOOOOOOOOOOOOOOOOOOOo+jxxxxxxxxxxxxxxxxxxxxx9",
"6xxxxxxxxxxxxxxxxxxxxxjhjgfsssppiuyytreew00998775544311<<,,,>:;--=**%$$##@@ooo#oOOOOOOOOOOOOOOOOOOOOOOO.4xxxxxxxxxxxxxxxxxxxxxx9",
"6xxxxxxxxxxxxxxxxxxxxxzhjgffssaaiiutttrwwqq9877775431311<,>>:::--=**&$$#$oo#@@ooOOOOOOOOOOOOOOOOOOOOOOoOgxxxxxxxxxxxxxxxxxxxxxx9",
"6xxxxxxxxxxxxxxxxxxxxxxhggffsaaiiuuutrrwwq0097775543311<<,,>>:;-==**%%$####ooo@oOOOOOOOOOOOOOOOOOOOOOO.2xxxxxxxxxxxxxxxxxxxxxxx9",
"6xxxxxxxxxxxxxxxxxxxxxxlggffssaaiiutttwwwqq997755543311<<,,>>:;-==**%$$$##o#ooooOOOOOOOOOOOOOOOOOOOOOoOdxxxxxxxxxxxxxxxxxxxxxxx9",
"6xxxxxxxxxxxxxxxxxxxxxxxggffsaaiiuuttrrewqq9987775433111<,,,::;-==*&&%$$$o#o@o@oOOOOOOOOOOOOOOOOOOOOO.<xxxxxxxxxxxxxxxxxxxxxxxx9",
"6xxxxxxxxxxxxxxxxxxxxxxxldfdssaaiuuuttewwq00777755433211<,,>>:;--=**%$$###ooo#o@oo@oooooOOOOOOOOOOOOOXsxxxxxxxxxxxxxxxxxxxxxxxx9",
"6xxxxxxxxxxxxxxxxxxxxxxxxgfssaaiiiutteewwq0907777543321<<,,>>:;--=**%%$#$o@ooooo@oooo@o@OOOOOOOOOOOO.>xxxxxxxxxxxxxxxxxxxxxxxxx9",
"6xxxxxxxxxxxxxxxxxxxxxxxxldfssaaiuuuttewwqq997777443311<<,,>::;--=**%%$$###oooo@oooo@oooOOOOOOOOOOOOXixxxxxxxxxxxxxxxxxxxxxxxxx9",
"6xxxxxxxxxxxxxxxxxxxxxxxxxfsssaiiiutttewwqq9977455443111<,,>>:;-==**%%$##$o#o#ooo@o@ooo@OOOOOOOOOOO.>xxxxxxxxxxxxxxxxxxxxxxxxxx9",
"6xxxxxxxxxxxxxxxxxxxxxxxxxksssaiiiyttreerqq797777543321<<,,>>:;-==**%%$###oo@oo#OOOOoo+oOOOOOOOOOOO.ixxxxxxxxxxxxxxxxxxxxxxxxxx9",
"6xxxxxxxxxxxxxxxxxxxxxxxxxxssasiiuuuttewqq00077755432111<,,>::;--**&%%$$$o#oooooOOOO+oo+OOOOOOOOOO.-xxxxxxxxxxxxxxxxxxxxxxxxxxx9",
"6xxxxxxxxxxxxxxxxxxxxxxxxxxksaapiuutteewe00077776544321<<,,,>:;--=**%%$####oooooOOOOo++oOOOOOOOOOO.txxxxxxxxxxxxxxxxxxxxxxxxxxx9",
"6xxxxxxxxxxxxxxxxxxxxxxxxxxxsaaiiiuutteeeq0077775443321<<,>>>:;-==**%%$###o#o@o#OOOo+oo+OOOOOOOOO.-xxxxxxxxxxxxxxxxxxxxxxxxxxxx9",
"6xxxxxxxxxxxxxxxxxxxxxxxxxxxjaaaiyytyrrqqq08077765442211<,,,>::--=**%%$%$$ooo#ooOOOOOOOOOOOOOOOOO.wxxxxxxxxxxxxxxxxxxxxxxxxxxxx9",
"6xxxxxxxxxxxxxxxxxxxxxxxxxxxxaaiiiyutrrreq0077776543221<<,>>>:;--=**%%$o#oo$ooooOOOOOOOOOOOOOOOO.&zxxxxxxxxxxxxxxxxxxxxxxxxxxxx9",
"6xxxxxxxxxxxxxxxxxxxxxxxxxxxxgiaiiyytreqeq0007776444321<<,,>>;;--=**%%%%&oo%#oo#OOOOOOOOOOOOOOOO.qxxxxxxxxxxxxxxxxxxxxxxxxxxxxx9",
"6xxxxxxxxxxxxxxxxxxxxxxxxxxxxxaiiyyytrre0000777764433211<,>>>::-=**&%%$%$%ooooooOOOOOOOOOOOOOOOX%lxxxxxxxxxxxxxxxxxxxxxxxxxxxxx9",
"6xxxxxxxxxxxxxxxxxxxxxxxxxxxxxfuiiutrtrwe00007776444321<<,,>>;;--=*&%%$oo%o$ooooOOOOOOOOOOOOOOO.9xxxxxxxxxxxxxxxxxxxxxxxxxxxxxx9",
"6xxxxxxxxxxxxxxxxxxxxxxxxxxxxxxiiiyyyrre0000777765433211<,,>>:;=-=*&%%%%%oo$ooo#OOOOOOOOOOOOOOX#kxxxxxxxxxxxxxxxxxxxxxxxxxxxxxx9",
"6xxxxxxxxxxxxxxxxxxxxxxxxxxxxxzfyiytrrree00887775543311<<,,>>;;--=*&%%$%$$ooooooOOOOOOOOOOOOOO.7xxxxxxxxxxxxxxxxxxxxxxxxxxxxxxx9",
"6xxxxxxxxxxxxxxxxxxxxxxxxxxxxzzkiyyurrewe00007776543321<<,,>>>;--=**%%$o#o#oo$ooOOOOOOOOOOOOOo@jxxxxxxxxxxxxxxxxxxxxxxxxxxxxxxx9",
"6xxxxxxxxxxxxxxxxxxxxxxxxxxxxxxxfyitttewwq0988885443321<<,,,>;;--=**%%$$#@++OOOOOOOOOOOOOOOOO 6xxxxxxxxxxxxxxxxxxxxxxxxxxxxxxxx9",
"6xxxxxxxxxxxxxxxxxxxxxxxxxxxxxxxzytttttwwq09888865433111<,>>>::=-=*&%$$##@+OOOOOOOOOOOOOOOOOO+fxxxxxxxxxxxxxxxxxxxxxxxxxxxxxxxx9",
"6xxxxxxxxxxxxxxxxxxxxxxxxxxxxxxxxsttttwwwq0988775544311<<,,>>;;;-=*&%%$##@++OOOOOOOOOOOOOOOO ,xxxxxxxxxxxxxxxxxxxxxxxxxxxxxxxxx9",
"6xxxxxxxxxxxxxxxxxxxxxxxxxxxxxxxxlttttrwwq0988748443331<<,,>>;;=-***%%$$@@++OOOOOOOOOOOOOOOO.txxxxxxxxxxxxxxxxxxxxxxxxxxxxxxxxx9",
"6xxxxxxxxxxxxxxxxxxxxxxxxxxxxxxxxxsttrrwwq0808776543321<<,>,>;:=-=*&%%$##@++OOOOOOOOOOOOOOOX%zxxxxxxxxxxxxxxxxxxxxxxxxxxxxxxxxx9",
"6xxxxxxxxxxxxxxxxxxxxxxxxxxxxxxxxxhtttrwwww8887755442111<,,>>>;;-=*&%%$##@@OOOOOOOOOOOOOOOO 9xxxxxxxxxxxxxxxxxxxxxxxxxxxxxxxxxx9",
"6xxxxxxxxxxxxxxxxxxxxxxxxxxxxxxxxxxirtrww00088876443321<<,,>>;;=-=*&%%$$@@++OOOOOOOOOOOOOOO#kxxxxxxxxxxxxxxxxxxxxxxxxxxxxxxxxxx9",
"6xxxxxxxxxxxxxxxxxxxxxxxxxxxxxxxxxxjrrrww00808878543321<<,,>>::--=*&%%$##@++OOOOOOOOOOOOOO.6xxxxxxxxxxxxxxxxxxxxxxxxxxxxxxxxxxx9",
"6xxxxxxxxxxxxxxxxxxxxxxxxxxxxxxxxxxxiwewwqq8888545433111<,,>>;;--**&%%$##@++OOOOOOOOOOOOOX$lxxxxxxxxxxxxxxxxxxxxxxxxxxxxxxxxxxx9",
"6xxxxxxxxxxxxxxxxxxxxxxxxxxxxxxxxxxxjrewwwqq88876444321<<,,>>:;=-=*&%%$##@++OOOOOOOOOOOOO.9xxxxxxxxxxxxxxxxxxxxxxxxxxxxxxxxxxxx9",
"6xxxxxxxxxxxxxxxxxxxxxxxxxxxxxxxxxxxxswwwqq888768543311<<,,>>;;--=&&%%$##@+OOOOOOOOOOOOO.-zxxxxxxxxxxxxxxxxxxxxxxxxxxxxxxxxxxxx9",
"6xxxxxxxxxxxxxxxxxxxxxxxxxxxxxxxxxxxxzewwwqq888655433111<,,>>>;--=*&%%$$@@@+OOOOOOOOOOOOXaxxxxxxxxxxxxxxxxxxxxxxxxxxxxxxxxxxxxx9",
"6xxxxxxxxxxxxxxxxxxxxxxxxxxxxxxxxxxxxxgqww8898876443321<<,,>>:;--=*&%%$##@++OOOOOOOOOOO 6xxxxxxxxxxxxxxxxxxxxxxxxxxxxxxxxxxxxxx9",
"6xxxxxxxxxxxxxxxxxxxxxxxxxxxxxxxxxxxxxxi8wwq88868444321<<,,>>::--=*&%%$##@++OOOOOOOOOO.-zxxxxxxxxxxxxxxxxxxxxxxxxxxxxxxxxxxxxxx9",
"6xxxxxxxxxxxxxxxxxxxxxxxxxxxxxxxxxxxxxxzy88q987654433111<,,>>:;--=*&%%$#@@++OOOOOOOOOX+dxxxxxxxxxxxxxxxxxxxxxxxxxxxxxxxxxxxxxxx9",
"6xxxxxxxxxxxxxxxxxxxxxxxxxxxxxxxxxxxxxxxzeq888766444311<<,,>>;;=-=*&%%$$#@++OOOOOOOOO.txxxxxxxxxxxxxxxxxxxxxxxxxxxxxxxxxxxxxxxx9",
"6xxxxxxxxxxxxxxxxxxxxxxxxxxxxxxxxxxxxxxxxh9998776543321<<,,>>::-==&&%%$##@++oOOOOOOO.9xxxxxxxxxxxxxxxxxxxxxxxxxxxxxxxxxxxxxxxxx9",
"6xxxxxxxxxxxxxxxxxxxxxxxxxxxxxxxxxxxxxxxxxf988766544221<<,,,>:;--==&%%$##@++OOOOOOO 6xxxxxxxxxxxxxxxxxxxxxxxxxxxxxxxxxxxxxxxxxx9",
"6xxxxxxxxxxxxxxxxxxxxxxxxxxxxxxxxxxxxxxxxxxf977755433211<,>>>;;--=&&%%%##@++OOOOOO.6xxxxxxxxxxxxxxxxxxxxxxxxxxxxxxxxxxxxxxxxxxx9",
"6xxxxxxxxxxxxxxxxxxxxxxxxxxxxxxxxxxxxxxxxxxxf8666543321<<,,>>:;--=&&%%$##@++OOOOX.6xxxxxxxxxxxxxxxxxxxxxxxxxxxxxxxxxxxxxxxxxxxx9",
"6xxxxxxxxxxxxxxxxxxxxxxxxxxxxxxxxxxxxxxxxxxxxj956444321<<,,>>:;--=&&%%$##@++OOO.Owxxxxxxxxxxxxxxxxxxxxxxxxxxxxxxxxxxxxxxxxxxxxx9",
"6xxxxxxxxxxxxxxxxxxxxxxxxxxxxxxxxxxxxxxxxxxxxxlw44432211<,,>:-=&&%&%%%%##@++Oo *sxxxxxxxxxxxxxxxxxxxxxxxxxxxxxxxxxxxxxxxxxxxxxx9",
"6xxxxxxxxxxxxxxxxxxxxxxxxxxxxxxxxxxxxxxxxxxxxxxxp723221<<,;:<46863>&##$##@+O.o4zxxxxxxxxxxxxxxxxxxxxxxxxxxxxxxxxxxxxxxxxxxxxxxx9",
"6xxxxxxxxxxxxxxxxxxxxxxxxxxxxxxxxxxxxxxxxxxxxxxxxkw3121<>2efzxxxxxxdw>@+#+oo;ixxxxxxxxxxxxxxxxxxxxxxxxxxxxxxxxxxxxxxxxxxxxxxxxx9",
"6xxxxxxxxxxxxxxxxxxxxxxxxxxxxxxxxxxxxxxxxxxxxxxxxxxgq2,2tzxxxxxxxxxxxxu-oO>txxxxxxxxxxxxxxxxxxxxxxxxxxxxxxxxxxxxxxxxxxxxxxxxxxx9",
"6xxxxxxxxxxxxxxxxxxxxxxxxxxxxxxxxxxxxxxxxxxxxxxxxxxxxjykxxxxxxxxxxxxxxxkqaxxxxxxxxxxxxxxxxxxxxxxxxxxxxxxxxxxxxxxxxxxxxxxxxxxxxx9",
"6xxxxxxxxxxxxxxxxxxxxxxxxxxxxxxxxxxxxxxxxxxxxxxxxxxxxxxxxxxxxxxxxxxxxxxxxxxxxxxxxxxxxxxxxxxxxxxxxxxxxxxxxxxxxxxxxxxxxxxxxxxxxxx9",
"6xxxxxxxxxxxxxxxxxxxxxxxxxxxxxxxxxxxxxxxxxxxxxxxxxxxxxxxxxxxxxxxxxxxxxxxxxxxxxxxxxxxxxxxxxxxxxxxxxxxxxxxxxxxxxxxxxxxxxxxxxxxxxx9",
"6xxxxxxxxxxxxxxxxxxxxxxxxxxxxxxxxxxxxxxxxxxxxxxxxxxxxxxxxxxxxxxxxxxxxxxxxxxxxxxxxxxxxxxxxxxxxxxxxxxxxxxxxxxxxxxxxxxxxxxxxxxxxxx9",
"6xxxxxxxxxxxxxxxxxxxxxxxxxxxxxxxxxxxxxxxxxxxxxxxxxxxxxxxxxxxxxxxxxxxxxxxxxxxxxxxxxxxxxxxxxxxxxxxxxxxxxxxxxxxxxxxxxxxxxxxxxxxxxx9",
"7xxxxxxxxxxxxxxxxxxxxxxxxxxxxxxxxxxxxxxxxxxxxxxxxxxxxxxxxxxxxxxxxxxxxxxxxxxxxxxxxxxxxxxxxxxxxxxxxxxxxxxxxxxxxxxxxxxxxxxxxxxxxxxw",
">eeewtwweewewwwtwweweewewwwtwweweewewwwtwweweewewwwtwweweewewweewewweewewweewewweewewwwtwweweewewwwtwweweewewweewewweewewweewwe<"
};
