/* XPM */
static char *ef6b7f0d35d5477ee5c6b964e3007cc3[] = {
/* columns rows colors chars-per-pixel */
"32 32 143 2 ",
"   c #76777A",
".  c #76777B",
"X  c #77787B",
"o  c #78797C",
"O  c #79797C",
"+  c #797A7D",
"@  c #797A7E",
"#  c #7A7B7E",
"$  c #7B7C7F",
"%  c #7B7C80",
"&  c #7C7D80",
"*  c #7C7E80",
"=  c #7D7E81",
"-  c #7D7F82",
";  c #7E7F82",
":  c #7F8083",
">  c #818285",
",  c #848588",
"<  c #858689",
"1  c #85878A",
"2  c #86878A",
"3  c #88898C",
"4  c #8B8D90",
"5  c #8C8E91",
"6  c #8E8F91",
"7  c #8D8F92",
"8  c #8F9194",
"9  c #919295",
"0  c #929497",
"q  c #939497",
"w  c #939598",
"e  c #959698",
"r  c #969699",
"t  c #969799",
"y  c #95979A",
"u  c #96989B",
"i  c #97999C",
"p  c #97999D",
"a  c #989A9D",
"s  c #9C9EA1",
"d  c #9D9FA2",
"f  c #A1A2A5",
"g  c #A1A3A7",
"h  c #A2A4A6",
"j  c #A3A4A6",
"k  c #A2A4A7",
"l  c #A3A5A7",
"z  c #A4A6A9",
"x  c #A8AAAC",
"c  c #A8AAAD",
"v  c #AAADB0",
"b  c #ADAFB1",
"n  c #AEB0B1",
"m  c #B1B3B5",
"M  c #B2B4B6",
"N  c #B6B6B8",
"B  c #B6B8BA",
"V  c #B8B8BA",
"C  c #B9BABB",
"Z  c #B9BABC",
"A  c #B9BBBE",
"S  c #BBBCBE",
"D  c #BDBDBF",
"F  c #BCBEC0",
"G  c #BFC0C1",
"H  c #BEC0C2",
"J  c #BFC0C2",
"K  c #BFC1C2",
"L  c #C1C1C3",
"P  c #C2C3C6",
"I  c #C3C4C6",
"U  c #C4C5C6",
"Y  c #C4C5C7",
"T  c #C7C8C9",
"R  c #C7C8CA",
"E  c #C7C9CA",
"W  c #C9CACC",
"Q  c #CDCDCF",
"!  c #CDCED0",
"~  c #CECFD0",
"^  c #CFD0D1",
"/  c #CFD0D2",
"(  c #D0D0D2",
")  c #D0D1D2",
"_  c #D1D1D2",
"`  c #D5D5D6",
"'  c #D5D6D7",
"]  c #D6D7D8",
"[  c #D7D8D9",
"{  c #D8D8DA",
"}  c #D8D9DA",
"|  c #D9D9DB",
" . c #DBDBDD",
".. c #DBDCDD",
"X. c #DDDDDE",
"o. c #DEDEDF",
"O. c #DFDFE1",
"+. c #DFE0E1",
"@. c #E0E1E2",
"#. c #E1E1E2",
"$. c #E1E2E2",
"%. c #E1E2E3",
"&. c #E3E3E4",
"*. c #E4E4E4",
"=. c gray90",
"-. c #E4E6E6",
";. c #E6E7E8",
":. c #E7E7E8",
">. c #E8E9E9",
",. c #E8E9EA",
"<. c #E9EAEA",
"1. c #E9EAEB",
"2. c #EAEBEB",
"3. c #ECECED",
"4. c #EEEEEE",
"5. c #EEEFEF",
"6. c #EFEFEF",
"7. c #EFEFF0",
"8. c gray94",
"9. c #F0F1F1",
"0. c #F1F1F1",
"q. c gray95",
"w. c #F3F3F3",
"e. c #F3F3F4",
"r. c #F3F4F4",
"t. c #F4F4F4",
"y. c #F4F4F5",
"u. c gray96",
"i. c #F5F5F6",
"p. c #F5F6F6",
"a. c #F6F6F6",
"s. c #F6F7F7",
"d. c gray97",
"f. c #F7F8F7",
"g. c #F8F8F8",
"h. c #F9F9F9",
"j. c #F9F9FA",
"k. c #FAFBFB",
"l. c #FBFBFB",
"z. c gray99",
"x. c #FDFDFD",
"c. c #FEFEFE",
"v. c gray100",
/* pixels */
"#.8.6.6.6.6.6.6.6.6.6.6.6.6.6.8.i.6.6.6.6.6.6.6.6.6.6.6.6.6.6.&.",
"8.v.v.v.v.v.v.v.v.v.v.v.v.v.v.{ <.v.v.v.v.v.v.v.v.v.v.v.v.v.v.w.",
"8.v.v.v.v.v.v.v.v.v.v.v.v.v.<.y h i.v.v.v.v.v.v.v.v.v.v.v.v.v.8.",
"6.v.v.v.v.v.v.v.v.v.v.v.v.v.T p 5 ' v.v.v.v.v.v.v.v.v.v.v.v.v.8.",
"6.v.v.v.v.v.v.v.v.v.v.v.v.v.K p 5 E v.v.v.v.v.v.v.v.v.v.v.v.v.8.",
"6.v.v.v.v.v.v.v.v.v.v.v.v.v./ y 5 { v.v.v.v.v.v.v.v.v.v.v.v.v.8.",
"6.v.v.v.v.v.v.v.v.i.1.+...+.-.z l #.~ L U ' i.v.v.v.v.v.v.v.v.8.",
"6.v.v.v.v.v.v.h.*./ I A m c v c d 9 ; o o o 3 C i.v.v.v.v.v.v.8.",
"6.v.v.v.v.v.f.#.] / E K B b z s 0 7 2 > > > ; X y 6.v.v.v.v.v.8.",
"6.v.v.v.v.h.<.+.] _ E K B b z s w 7 2 > > > > > X 9 i.v.v.v.v.8.",
"6.v.v.v.v.e.3.+.| ) E F B b z d y 7 2 > > > > > >   N v.v.v.v.8.",
"6.v.v.v.k.r.1.%.] ) R H B b z d y 7 2 > > > > > > ; 2 8.v.v.v.8.",
"6.v.v.v.h.i.1.+.| ) R H B n z d y 7 1 > > > > > > > o _ v.v.v.8.",
"6.v.v.v.h.i.1.#.| ) R H B n z d y 7 1 > > > > > > > o F v.v.v.8.",
"6.v.v.v.v.8.3.+.] ) R H B b z d y 7 1 > > > > > > > o C v.v.v.8.",
"6.v.v.v.h.i.1.#.| ) R H B n z d y 7 1 > > > > > > > o I v.v.v.8.",
"6.v.v.v.h.r.3.+.| ) W H B b z d y 7 1 > > > > > > > ; X.v.v.v.8.",
"6.v.v.v.v.r.1.#.] / R H B b z d y 7 1 > > > > > > % y h.v.v.v.8.",
"6.v.v.v.v.r.<.+.| ) T F B b z d y 7 1 > > > > > > o _ v.v.v.v.8.",
"6.v.v.v.v.k.<.#.| ) W H B b z d y 7 1 > > > > > % y v.v.v.v.v.8.",
"6.v.v.v.v.v.7.+.] ) R H B b z d y 7 1 > > > > > o ~ v.v.v.v.v.8.",
"6.v.v.v.v.v.h.+.| ) R H B b z d y 7 1 > > > : ; 9 h.v.v.v.v.v.8.",
"6.v.v.v.v.v.v.1.] ) R H B b z d y 7 1 > > > > o T v.v.v.v.v.v.8.",
"6.v.v.v.v.v.v.f.] / R H B b z d y 7 1 > > > ; 5 i.v.v.v.v.v.v.8.",
"6.v.v.v.v.v.v.v.%.~ E H B b z d t 7 2 > > > X D v.v.v.v.v.v.v.8.",
"6.v.v.v.v.v.v.v.r.~ T F B b z d y 7 2 > > : 2 6.v.v.v.v.v.v.v.8.",
"6.v.v.v.v.v.v.v.v.| U K B b z d y 7 2 > >   C v.v.v.v.v.v.v.v.8.",
"6.v.v.v.v.v.v.v.v.h.W A B b z d y 7 2 > o t i.v.v.v.v.v.v.v.v.8.",
"6.v.v.v.v.v.v.v.v.v.6.K m b h a 8 7 ,   5 6.v.v.v.v.v.v.v.v.v.8.",
"6.v.v.v.v.v.v.v.v.v.v.8.P x n A m 0 : l 6.v.v.v.v.v.v.v.v.v.v.8.",
"8.v.v.v.v.v.v.v.v.v.v.v.v.;.f.v.v.8.o.v.v.v.v.v.v.v.v.v.v.v.v.8.",
"*.t.t.i.8.t.i.8.t.i.8.w.i.i.i.w.i.i.f.r.t.i.8.t.i.8.t.i.8.8.i.<."
};
