/* XPM */
static char *a22dc75122a34b27aa4420acd93b31da[] = {
/* columns rows colors chars-per-pixel */
"64 64 256 2 ",
"   c #78797C",
".  c #78797D",
"X  c #787A7D",
"o  c #797A7D",
"O  c #797A7E",
"+  c #7A7B7E",
"@  c #7A7B7F",
"#  c #7A7C7F",
"$  c #7B7C7F",
"%  c #7B7C80",
"&  c #7C7D80",
"*  c #7D7E81",
"=  c #7D7F82",
"-  c #7E7F82",
";  c #7E8083",
":  c #7F8083",
">  c #7F8084",
",  c #808084",
"<  c #808184",
"1  c #808285",
"2  c #818285",
"3  c #828386",
"4  c #838487",
"5  c #838588",
"6  c #848588",
"7  c #858689",
"8  c #868789",
"9  c #87888B",
"0  c #87888C",
"q  c #88898C",
"w  c #8A8C8F",
"e  c #8B8C8F",
"r  c #8A8C90",
"t  c #8B8D90",
"y  c #8B8D91",
"u  c #8C8D90",
"i  c #8D8F92",
"p  c #8D8F93",
"a  c #8E8F92",
"s  c #8F8F92",
"d  c #8F9092",
"f  c #8E9093",
"g  c #8F9093",
"h  c #8F9194",
"j  c #909296",
"k  c #919396",
"l  c #939496",
"z  c #929497",
"x  c #929597",
"c  c #949497",
"v  c #949699",
"b  c #959799",
"n  c #96979A",
"m  c #97989A",
"M  c #96989B",
"N  c #97999C",
"B  c #979A9D",
"V  c #98999C",
"C  c #999A9D",
"Z  c #999B9E",
"A  c #9B9B9E",
"S  c #9B9C9E",
"D  c #9A9C9F",
"F  c #9B9D9F",
"G  c #9C9D9F",
"H  c #9B9DA0",
"J  c #9B9DA1",
"K  c #9C9EA1",
"L  c #9D9FA2",
"P  c #9FA0A2",
"I  c #9EA0A3",
"U  c #9FA1A4",
"Y  c #9FA1A5",
"T  c #A0A1A3",
"R  c #A0A1A4",
"E  c #A0A2A5",
"W  c #A1A4A7",
"Q  c #A2A4A7",
"!  c #A3A6A7",
"~  c #A4A6A8",
"^  c #A7A7A9",
"/  c #A5A7AA",
"(  c #A5A8AB",
")  c #A6A8AA",
"_  c #A6A8AB",
"`  c #A6A9AB",
"'  c #A9ABAD",
"]  c #A9ABAE",
"[  c #ABADAF",
"{  c #ACADAF",
"}  c #ADAEAF",
"|  c #ABADB0",
" . c #ADAEB0",
".. c #AEAFB1",
"X. c #AFB1B3",
"o. c #B0B1B4",
"O. c #B2B3B4",
"+. c #B2B3B5",
"@. c #B1B2B6",
"#. c #B1B3B6",
"$. c #B3B5B7",
"%. c #B3B5B8",
"&. c #B6B7B9",
"*. c #B6B8BA",
"=. c #B7B9BB",
"-. c #B8B9BB",
";. c #B8BABC",
":. c #B9BBBE",
">. c #BABCBF",
",. c #BCBDBE",
"<. c #BCBDBF",
"1. c #BCBDC0",
"2. c #BCBEC0",
"3. c #BDBFC0",
"4. c #BDBEC1",
"5. c #BEBEC0",
"6. c #BEC0C1",
"7. c #BEC0C2",
"8. c #BFC1C3",
"9. c #C0C1C2",
"0. c #C0C1C3",
"q. c #C1C1C3",
"w. c #C0C2C4",
"e. c #C1C2C4",
"r. c #C1C2C5",
"t. c #C2C2C4",
"y. c #C2C3C4",
"u. c #C2C3C5",
"i. c #C3C3C5",
"p. c #C3C4C5",
"a. c #C2C4C6",
"s. c #C6C6C7",
"d. c #C5C6C8",
"f. c #C5C6C9",
"g. c #C6C7C8",
"h. c #C6C7C9",
"j. c #C7C8CB",
"k. c #C7C9CB",
"l. c #C9C9CA",
"z. c #C8C9CB",
"x. c #C9C9CB",
"c. c #C9CACB",
"v. c #C9CACC",
"b. c #CACACC",
"n. c #CACBCC",
"m. c #CBCBCC",
"M. c #CACBCD",
"N. c #CACBCE",
"B. c #CBCCCE",
"V. c #CBCDCF",
"C. c #CCCCCD",
"Z. c #CCCDCF",
"A. c #CDCED0",
"S. c #CECFD0",
"D. c #CFD0D1",
"F. c #CFD0D2",
"G. c #D0D0D1",
"H. c #D0D1D2",
"J. c #D1D1D2",
"K. c #D0D1D3",
"L. c #D0D2D3",
"P. c #D1D2D3",
"I. c #D1D2D4",
"U. c #D2D3D4",
"Y. c #D3D4D5",
"T. c #D3D4D6",
"R. c #D4D4D6",
"E. c #D5D5D6",
"W. c #D4D5D7",
"Q. c #D5D6D7",
"!. c #D6D7D8",
"~. c #D7D7D9",
"^. c #D7D8D9",
"/. c #D8D9D9",
"(. c #D8D9DA",
"). c #D9DADB",
"_. c #D9DADC",
"`. c #DADBDC",
"'. c #DBDBDC",
"]. c #DBDCDD",
"[. c #DCDCDE",
"{. c #DCDDDE",
"}. c #DDDDDF",
"|. c #DCDEDF",
" X c gray87",
".X c #DDDEE0",
"XX c #DEDFE0",
"oX c #DFDFE0",
"OX c #DFE0E1",
"+X c #E1E1E1",
"@X c #E1E2E2",
"#X c #E2E2E2",
"$X c #E2E2E3",
"%X c gray89",
"&X c #E2E3E4",
"*X c #E3E3E4",
"=X c #E3E4E4",
"-X c #E4E4E5",
";X c gray90",
":X c #E5E5E6",
">X c #E5E6E7",
",X c #E6E6E6",
"<X c #E6E7E7",
"1X c #E7E7E7",
"2X c #E7E7E8",
"3X c #E7E8E8",
"4X c #E7E8E9",
"5X c #E8E8E9",
"6X c #E8E9E9",
"7X c #E9EAEA",
"8X c #EAEAEA",
"9X c #EAEBEB",
"0X c gray92",
"qX c #EAECEC",
"wX c #EBECEC",
"eX c #EBECED",
"rX c #ECECED",
"tX c #ECEDED",
"yX c gray93",
"uX c #ECEDEE",
"iX c #EDEDEE",
"pX c #EDEEEE",
"aX c #EEEEEE",
"sX c #EEEFEF",
"dX c #EFEFEF",
"fX c #EFEFF0",
"gX c #EFF0F0",
"hX c #F0F0F1",
"jX c #F1F1F2",
"kX c #F2F2F3",
"lX c #F2F3F3",
"zX c #F4F4F4",
"xX c #F4F4F5",
"cX c #F5F4F5",
"vX c gray96",
"bX c #F6F5F5",
"nX c #F6F6F6",
"mX c #F6F6F7",
"MX c #F6F7F7",
"NX c gray97",
"BX c #F7F7F8",
"VX c #F7F8F8",
"CX c #F8F8F8",
"ZX c #F8F8F9",
"AX c #F9F9F9",
"SX c #F9F9FA",
"DX c #F9FAFA",
"FX c gray98",
"GX c #FAFBFB",
"HX c #FBFBFB",
"JX c #FBFBFC",
"KX c gray99",
"LX c #FDFDFC",
"PX c #FDFDFD",
"IX c #FEFEFE",
"UX c gray100",
/* pixels */
"s.oX X X X X X X X X X X X X X X X X X X X X X X X X X X X X X X X X X X X X X X X X X X X X X X X X X X X X X X X X X X X X Xl.",
"#XUXUXUXUXUXUXUXUXUXUXUXUXUXUXUXUXUXUXUXUXUXUXUXUXUXUXUXUXUXUXUXUXUXUXUXUXUXUXUXUXUXUXUXUXUXUXUXUXUXUXUXUXUXUXUXUXUXUXUXUXUXUX1X",
" XUXUXUXUXUXUXUXUXUXUXUXUXUXUXUXUXUXUXUXUXUXUXUXUXUXUXUXUXUXUXyXUXUXUXUXUXUXUXUXUXUXUXUXUXUXUXUXUXUXUXUXUXUXUXUXUXUXUXUXUXUXUX#X",
" XUXUXUXUXUXUXUXUXUXUXUXUXUXUXUXUXUXUXUXUXUXUXUXUXUXUXUXUXUX_.n ,.UXUXUXUXUXUXUXUXUXUXUXUXUXUXUXUXUXUXUXUXUXUXUXUXUXUXUXUXUXUX%X",
" XUXUXUXUXUXUXUXUXUXUXUXUXUXUXUXUXUXUXUXUXUXUXUXUXUXUXUXUXyXT M p s.UXUXUXUXUXUXUXUXUXUXUXUXUXUXUXUXUXUXUXUXUXUXUXUXUXUXUXUXUX#X",
" XUXUXUXUXUXUXUXUXUXUXUXUXUXUXUXUXUXUXUXUXUXUXUXUXUXUXUXUX6.D H n n 6XUXUXUXUXUXUXUXUXUXUXUXUXUXUXUXUXUXUXUXUXUXUXUXUXUXUXUXUX<X",
" XUXUXUXUXUXUXUXUXUXUXUXUXUXUXUXUXUXUXUXUXUXUXUXUXUXUXUXNX( Y H M w r.UXUXUXUXUXUXUXUXUXUXUXUXUXUXUXUXUXUXUXUXUXUXUXUXUXUXUXUX#X",
" XUXUXUXUXUXUXUXUXUXUXUXUXUXUXUXUXUXUXUXUXUXUXUXUXUXUXUX&XL E H M p Q UXUXUXUXUXUXUXUXUXUXUXUXUXUXUXUXUXUXUXUXUXUXUXUXUXUXUXUX#X",
" XUXUXUXUXUXUXUXUXUXUXUXUXUXUXUXUXUXUXUXUXUXUXUXUXUXUXUX XE Y H N h H HXUXUXUXUXUXUXUXUXUXUXUXUXUXUXUXUXUXUXUXUXUXUXUXUXUXUXUX#X",
" XUXUXUXUXUXUXUXUXUXUXUXUXUXUXUXUXUXUXUXUXUXUXUXUXUXUXUXOXH Y H N h D HXUXUXUXUXUXUXUXUXUXUXUXUXUXUXUXUXUXUXUXUXUXUXUXUXUXUXUX%X",
" XUXUXUXUXUXUXUXUXUXUXUXUXUXUXUXUXUXUXUXUXUXUXUXUXUXUXUXuXE Y H M p ! UXUXUXUXUXUXUXUXUXUXUXUXUXUXUXUXUXUXUXUXUXUXUXUXUXUXUXUX#X",
" XUXUXUXUXUXUXUXUXUXUXUXUXUXUXUXUXUXUXUXUXUXUXUXUXUXUXUXUXo.H H N w 1.UXUXUXUXUXUXUXUXUXUXUXUXUXUXUXUXUXUXUXUXUXUXUXUXUXUXUXUX<X",
" XUXUXUXUXUXUXUXUXUXUXUXUXUXUXUXUXUXUXUXUXUXJXHXHXJXUXUXUXQ.D H M j qXUXUXUXHXNXCXUXUXUXUXUXUXUXUXUXUXUXUXUXUXUXUXUXUXUXUXUXUX#X",
" XUXUXUXUXUXUXUXUXUXUXUXUXUXUXUXUXUXHX0X XK.j.r.,.,.6.V.OXMX1.n l a.yXn.} V f u p l ^ y.#XUXUXUXUXUXUXUXUXUXUXUXUXUXUXUXUXUXUX#X",
" XUXUXUXUXUXUXUXUXUXUXUXUXUXUXUXVX<XU.v.f.r.6.2.*.#.| ( Q | a._ H } l 5 > ; * ; * $ +   < D J.UXUXUXUXUXUXUXUXUXUXUXUXUXUXUXUX#X",
" XUXUXUXUXUXUXUXUXUXUXUXUXUXUXyX{.U.U.A.v.d.8.2.;.%.X.| _ E H H D p p w q 5 2 2 2 2 2 2 < + + S &XUXUXUXUXUXUXUXUXUXUXUXUXUXUX%X",
" XUXUXUXUXUXUXUXUXUXUXUXUXKX4X{.).!.U.A.v.d.8.6.;.%.X.| Q Q R H N z h t q 5 2 2 2 2 2 2 2 2 2 + 2 l.UXUXUXUXUXUXUXUXUXUXUXUXUX#X",
" XUXUXUXUXUXUXUXUXUXUXUXKX6XOXoX{.!.U.A.v.d.8.2.;.%.X.| ` Q E H N l h t q 5 2 2 2 2 2 2 2 2 2 2 ; + y.UXUXUXUXUXUXUXUXUXUXUXUX#X",
" XUXUXUXUXUXUXUXUXUXUXJXuX<X#XoX).!.U.A.v.d.8.6.;.%.X.| ` Q E H N z h t q 5 2 2 2 2 2 2 2 2 2 2 2 2 + h.UXUXUXUXUXUXUXUXUXUXUX#X",
" XUXUXUXUXUXUXUXUXUXUXMXqX4X&XOX`.!.U.Z.v.d.8.2.;.%.X.| ` Q E H N z h w q 5 2 2 2 2 2 2 2 2 2 2 2 2 * > #XUXUXUXUXUXUXUXUXUXUX<X",
" XUXUXUXUXUXUXUXUXUXNXhXyX4X&X|.{.!.U.A.v.d.8.6.;.%.X.| _ Q E H N z h t q 5 2 2 2 2 2 2 2 2 2 2 2 2 2 + M HXUXUXUXUXUXUXUXUXUX#X",
" XUXUXUXUXUXUXUXUXUXhXhXuX6X&XOX_.!.U.A.v.d.8.2.;.%.X.| _ Q E H N z h t q 7 2 2 2 2 2 2 2 2 2 2 2 2 2 2 + l.UXUXUXUXUXUXUXUXUX#X",
" XUXUXUXUXUXUXUXUXHXNXhXuX<X=X|.{.Q.U.A.v.d.8.6.;.%.o.| _ Q H H N z h t q 4 2 2 2 2 2 2 2 2 2 2 2 2 2 2 % j HXUXUXUXUXUXUXUXUX#X",
" XUXUXUXUXUXUXUXUXVXMXhXyX<X=XOX{.Q.U.A.v.d.8.2.;.%.X.| _ Q E H N z h t q 4 2 2 2 2 2 2 2 2 2 2 2 2 2 2 2 * '.UXUXUXUXUXUXUXUX%X",
" XUXUXUXUXUXUXUXHXNXNXhXuX<X=X|._.!.U.A.v.d.8.2.;.%.X.| _ Q E H N z h t q 5 2 2 2 2 2 2 2 2 2 2 2 2 2 2 2   &.UXUXUXUXUXUXUXUX#X",
" XUXUXUXUXUXUXUXHXHXVXhXuX<X=X|._.!.U.A.v.d.a.2.;.%.X.| _ Q E D N z h t q 5 2 2 2 2 2 2 2 2 2 2 2 2 2 2 2 + D UXUXUXUXUXUXUXUX<X",
" XUXUXUXUXUXUXUXHXHXMXhXuX<X&X.X{.!.U.A.v.d.8.2.;.%.X.| _ Q E H N z h t q 5 2 2 2 2 2 2 2 2 2 2 2 2 2 2 2 * p NXUXUXUXUXUXUXUX#X",
" XUXUXUXUXUXUXUXHXJXMXhXuX4X&XoX).!.U.A.v.h.8.2.;.%.X.| _ Q E H N z h t q 5 2 2 2 2 2 2 2 2 2 2 2 2 2 2 2 < 7 dXUXUXUXUXUXUXUX#X",
" XUXUXUXUXUXUXUXHXVXNXgXuX4X&XoX).!.U.A.v.d.8.6.;.%.X.| ( W H H N z h t q 5 2 2 2 2 2 2 2 2 2 2 2 2 2 2 2 * 7 6XUXUXUXUXUXUXUX#X",
" XUXUXUXUXUXUXUXHXHXMXkXuX4X&XoX{.!.U.A.v.d.8.2.;.%.X.| ( W E H N z h t q 5 2 2 2 2 2 2 2 2 2 2 2 2 2 2 2 < 7 yXUXUXUXUXUXUXUX%X",
" XUXUXUXUXUXUXUXHXHXNXgXuX<X=XOX).!.U.A.v.d.8.2.;.%.X.| ( Q E H N z h t q 5 2 2 2 2 2 2 2 2 2 2 2 2 2 2 2 * q NXUXUXUXUXUXUXUX#X",
" XUXUXUXUXUXUXUXHXVXMXgXuX<X=X X).!.U.A.v.d.8.6.;.%.X.| ` Q E H N z h t q 5 2 2 2 2 2 2 2 2 2 2 2 2 2 2 2 + V UXUXUXUXUXUXUXUX<X",
" XUXUXUXUXUXUXUXKXMXMXhXuX4XOXOX{.!.U.A.h.f.8.2.;.%.X.| _ Q E H N z h t q 5 2 2 2 2 2 2 2 2 2 2 2 2 2 2 2 + X.UXUXUXUXUXUXUXUX#X",
" XUXUXUXUXUXUXUXUXHXMXhXuX4X&XOX).!.U.A.V.s.a.2.;.%.X.| _ Q L H N z h t q 5 2 2 2 2 2 2 2 2 2 2 2 2 2 2 2 + !.UXUXUXUXUXUXUXUX%X",
" XUXUXUXUXUXUXUXUXMXvXhXuX<X&XOX{.U.U.A.l.d.r.2.;.%.X.| _ Q E H N z h t q 5 2 2 2 2 2 2 2 2 2 2 2 2 2 2 * p MXUXUXUXUXUXUXUXUX#X",
" XUXUXUXUXUXUXUXUXUXNXhXpX<XOXOX{.!.U.A.v.d.8.2.;.%.o.| _ Q L H N z h t q 5 2 2 2 2 2 2 2 2 2 2 2 2 2 2   y.UXUXUXUXUXUXUXUXUX%X",
" XUXUXUXUXUXUXUXUXUXNXpXuX<X#X X{.!.U.D.v.d.8.2.;.%.X.| _ Q E H N z h t q 5 2 2 2 2 2 2 2 2 2 2 2 2 2 * p NXUXUXUXUXUXUXUXUXUX#X",
" XUXUXUXUXUXUXUXUXUXUXhXuX4X&XOX!.!.U.A.v.d.r.2.;.%.X.| _ Q E H N z h t q 5 2 2 2 2 2 2 2 2 2 2 2 2 2 + l.UXUXUXUXUXUXUXUXUXUX<X",
" XUXUXUXUXUXUXUXUXUXUXvXuX4X&XoX{.!.U.A.v.d.r.1.;.%.X.| _ Q T J N z h t q 5 2 2 2 2 2 2 2 2 2 2 2 2 * f NXUXUXUXUXUXUXUXUXUXUX#X",
" XUXUXUXUXUXUXUXUXUXUXKXuX>X&XoX!.!.U.A.v.s.r.1.;.%.X.| _ Q L J N z h t q 5 2 2 2 2 2 2 2 2 2 2 2 2   r.UXUXUXUXUXUXUXUXUXUXUX#X",
" XUXUXUXUXUXUXUXUXUXUXUXhX>X&XoX{.!.U.A.j.d.r.2.;.%.X.| Q Q R J N z h t q 5 2 2 2 2 2 2 2 2 2 2 2 * q NXUXUXUXUXUXUXUXUXUXUXUX#X",
" XUXUXUXUXUXUXUXUXUXUXUXJX4X&XoX{.!.U.A.V.a.8.2.;.%.X.| ` Q E H N z h t q 5 2 2 2 2 2 2 2 2 2 2 2 + 1.UXUXUXUXUXUXUXUXUXUXUXUX%X",
" XUXUXUXUXUXUXUXUXUXUXUXUXyX#XOX!.!.U.A.v.d.a.,.;.%.X.| ` Q E H N z h t q 5 2 2 2 2 2 2 2 2 2 2 * q hXUXUXUXUXUXUXUXUXUXUXUXUX#X",
" XUXUXUXUXUXUXUXUXUXUXUXUXHX&XOX{.!.U.A.v.h.8.2.;.%.X.| ` Q E H N z h t q 5 2 2 2 2 2 2 2 2 2 2 + -.UXUXUXUXUXUXUXUXUXUXUXUXUX<X",
" XUXUXUXUXUXUXUXUXUXUXUXUXUXuX{.{.!.U.A.v.d.8.6.;.%.X.| _ Q E H N z h t q 5 2 2 2 2 2 2 2 2 2 * 4 yXUXUXUXUXUXUXUXUXUXUXUXUXUX#X",
" XUXUXUXUXUXUXUXUXUXUXUXUXUXVXoX_.!.U.A.v.d.8.2.;.%.X.| _ Q L H N z h t q 5 2 2 2 2 2 2 2 2 2   o.UXUXUXUXUXUXUXUXUXUXUXUXUXUX#X",
" XUXUXUXUXUXUXUXUXUXUXUXUXUXUX4X!.!.U.A.v.d.8.6.;.%.o.| _ Q E H N z h t q 5 2 2 2 2 2 2 2 2 > 2 6XUXUXUXUXUXUXUXUXUXUXUXUXUXUX#X",
" XUXUXUXUXUXUXUXUXUXUXUXUXUXUXVX_.!.U.A.v.d.8.2.;.%.X.| _ Q L H N z h t q 5 2 2 2 2 2 2 2 2 + } UXUXUXUXUXUXUXUXUXUXUXUXUXUXUX%X",
" XUXUXUXUXUXUXUXUXUXUXUXUXUXUXUX&XU.U.A.v.d.r.2.;.%.X.| _ Q E H N z h t q 5 2 2 2 2 2 2 2 < : <XUXUXUXUXUXUXUXUXUXUXUXUXUXUXUX#X",
" XUXUXUXUXUXUXUXUXUXUXUXUXUXUXUXNX!.U.A.v.d.8.2.;.%.X.| _ Q E H N l h t q 5 2 2 2 2 2 2 2 * H UXUXUXUXUXUXUXUXUXUXUXUXUXUXUXUX<X",
" XUXUXUXUXUXUXUXUXUXUXUXUXUXUXUXUXoXJ.A.v.d.8.2.;.%.X.| _ Q E H N z h t q 5 2 2 2 2 2 2 2 + A.UXUXUXUXUXUXUXUXUXUXUXUXUXUXUXUX#X",
" XUXUXUXUXUXUXUXUXUXUXUXUXUXUXUXUXhXD.A.v.d.r.2.;.%.X.| _ E E H N z h w q 5 2 2 2 2 2 2 + j HXUXUXUXUXUXUXUXUXUXUXUXUXUXUXUXUX#X",
" XUXUXUXUXUXUXUXUXUXUXUXUXUXUXUXUXUX).v.v.d.8.2.;.%.X.| ( ! L H N z h t q 7 2 2 2 2 2 2 + G.UXUXUXUXUXUXUXUXUXUXUXUXUXUXUXUXUX#X",
" XUXUXUXUXUXUXUXUXUXUXUXUXUXUXUXUXUXzXV.j.d.r.6.;.%.X.| ( E E H N z h t q 4 2 2 2 2 2 + H UXUXUXUXUXUXUXUXUXUXUXUXUXUXUXUXUXUX%X",
" XUXUXUXUXUXUXUXUXUXUXUXUXUXUXUXUXUXUX<Xh.d.6.1.;.%.X.| ( Q E H N z h t q 7 2 2 2 2 : 4 6XUXUXUXUXUXUXUXUXUXUXUXUXUXUXUXUXUXUX#X",
" XUXUXUXUXUXUXUXUXUXUXUXUXUXUXUXUXUXUXUX!.r.r.2.;.%.X.| ( Q E H N z h t q 4 2 2 2 < + Z.UXUXUXUXUXUXUXUXUXUXUXUXUXUXUXUXUXUXUX<X",
" XUXUXUXUXUXUXUXUXUXUXUXUXUXUXUXUXUXUXUXHXZ.,.2.;.%.o.| ` W Y H N z h t q 5 2 2 * + ,.UXUXUXUXUXUXUXUXUXUXUXUXUXUXUXUXUXUXUXUX#X",
" XUXUXUXUXUXUXUXUXUXUXUXUXUXUXUXUXUXUXUXUXHXV.*.;.%.o.| ` E U D N z h t q 5 2 ; + ,.UXUXUXUXUXUXUXUXUXUXUXUXUXUXUXUXUXUXUXUXUX#X",
" XUXUXUXUXUXUXUXUXUXUXUXUXUXUXUXUXUXUXUXUXUXHXD.&.o.o.| Q E D n j t t t q 5 + 2 l.UXUXUXUXUXUXUXUXUXUXUXUXUXUXUXUXUXUXUXUXUXUX#X",
" XUXUXUXUXUXUXUXUXUXUXUXUXUXUXUXUXUXUXUXUXUXUXUX&X;.| Q ` 9.!.'.).d.W q ; * T <XUXUXUXUXUXUXUXUXUXUXUXUXUXUXUXUXUXUXUXUXUXUXUX%X",
" XUXUXUXUXUXUXUXUXUXUXUXUXUXUXUXUXUXUXUXUXUXUXUXUXHX!.d.yXUXUXUXUXUXUXR.} ).UXUXUXUXUXUXUXUXUXUXUXUXUXUXUXUXUXUXUXUXUXUXUXUXUX#X",
" XUXUXUXUXUXUXUXUXUXUXUXUXUXUXUXUXUXUXUXUXUXUXUXUXUXUXUXUXUXUXUXUXUXUXUXUXUXUXUXUXUXUXUXUXUXUXUXUXUXUXUXUXUXUXUXUXUXUXUXUXUXUX<X",
"#XUXUXUXUXUXUXUXUXUXUXUXUXUXUXUXUXUXUXUXUXUXUXUXUXUXUXUXUXUXUXUXUXUXUXUXUXUXUXUXUXUXUXUXUXUXUXUXUXUXUXUXUXUXUXUXUXUXUXUXUXUXUX<X",
"m.3X1X<X1X1X<X1X1X<X1X1X<X1X<X<X1X1X<X1X1X<X1X1X<X1X<X<X1X1X<X1X<X<X1X1X<X1X<X<X1X1X<X1X1X<X1X1X<X1X1X<X1X1X<X1X1X<X1X1X<X1X5XZ."
};
